<?xml version="1.0" encoding="utf-8"?>
<!-- Generator: Adobe Illustrator 25.4.1, SVG Export Plug-In . SVG Version: 6.00 Build 0)  -->
<svg version="1.1" id="Layer_1" xmlns="http://www.w3.org/2000/svg" xmlns:xlink="http://www.w3.org/1999/xlink" x="0px" y="0px" viewBox="0 0 464.7 504.3" style="enable-background:new 0 0 464.7 504.3;" xml:space="preserve">
	<style type="text/css">
	.st0{fill:none;stroke:#f6d55c;stroke-width:5;stroke-miterlimit:10;}
	.st1{fill:#f6d55c;stroke:#f6d55c;stroke-miterlimit:10;}
</style>
	<path class="st0" d="M444.1,350.6V153.7c0-14.5-7.7-27.8-20.3-35.1L253.4,20.3c-12.5-7.2-28-7.2-40.5,0L42.4,118.7
	c-12.5,7.2-20.3,20.6-20.3,35.1v196.8c0,14.5,7.7,27.8,20.3,35.1L212.9,484c12.5,7.2,28,7.2,40.5,0l170.4-98.4
	C436.4,378.4,444.1,365,444.1,350.6z" />
	<line class="st1" x1="42" y1="184.4" x2="424.2" y2="184.4" />
	<line class="st1" x1="42" y1="312.4" x2="424.2" y2="312.4" />
	<g>
		<path class="st1" d="M54.6,204.3h42.2c10.5,0,18.4,2.7,23.7,8.1c4.2,4.2,6.2,9.3,6.2,15.5v0.3c0,2.6-0.3,4.9-1,6.9
		c-0.6,2-1.5,3.8-2.6,5.4c-1.1,1.6-2.3,3-3.7,4.2c-1.4,1.2-2.9,2.3-4.6,3.1c5.3,2,9.4,4.7,12.4,8.1c3,3.4,4.5,8.2,4.5,14.2v0.3
		c0,4.2-0.8,7.8-2.4,10.9s-3.9,5.7-6.9,7.8c-3,2.1-6.6,3.6-10.8,4.7c-4.2,1-8.8,1.6-14,1.6H54.6V204.3z M92.6,241.1
		c4.4,0,7.9-0.8,10.5-2.3c2.6-1.5,3.9-4,3.9-7.3v-0.3c0-3-1.1-5.4-3.4-7c-2.3-1.6-5.5-2.4-9.8-2.4H74.1v19.2H92.6z M97.9,277.8
		c4.4,0,7.9-0.8,10.4-2.4c2.5-1.6,3.8-4.1,3.8-7.5v-0.3c0-3-1.2-5.4-3.5-7.2c-2.3-1.8-6.1-2.7-11.3-2.7H74.1v20H97.9z" />
		<path class="st1" d="M192.7,296.9c-7,0-13.5-1.2-19.4-3.7c-5.9-2.5-11-5.8-15.3-10c-4.3-4.2-7.6-9.1-10-14.8
		c-2.4-5.7-3.6-11.8-3.6-18.3v-0.3c0-6.5,1.2-12.6,3.6-18.3c2.4-5.7,5.8-10.7,10.1-14.9s9.4-7.7,15.3-10.1
		c5.9-2.5,12.4-3.7,19.4-3.7s13.5,1.2,19.4,3.7c5.9,2.5,11,5.8,15.3,10c4.3,4.2,7.6,9.1,10,14.8c2.4,5.7,3.6,11.8,3.6,18.3v0.3
		c0,6.5-1.2,12.6-3.6,18.3c-2.4,5.7-5.8,10.7-10.1,15s-9.4,7.7-15.3,10.1C206.2,295.6,199.7,296.9,192.7,296.9z M193,278.4
		c4,0,7.7-0.7,11.1-2.2c3.4-1.5,6.3-3.5,8.6-6.1c2.4-2.6,4.2-5.6,5.6-9c1.3-3.4,2-7.1,2-11v-0.3c0-3.9-0.7-7.6-2-11
		c-1.3-3.5-3.2-6.5-5.7-9.1c-2.5-2.6-5.4-4.7-8.8-6.2c-3.4-1.5-7.1-2.3-11-2.3c-4.1,0-7.8,0.7-11.1,2.2c-3.3,1.5-6.2,3.5-8.6,6.1
		c-2.4,2.6-4.2,5.6-5.6,9c-1.3,3.4-2,7.1-2,11v0.3c0,3.9,0.7,7.6,2,11c1.3,3.5,3.2,6.5,5.7,9.1c2.5,2.6,5.4,4.7,8.7,6.2
		C185.2,277.7,188.9,278.4,193,278.4z" />
		<path class="st1" d="M259,204.3h20v72.9h45.4v18.1H259V204.3z" />
		<path class="st1" d="M360.7,222.8H333v-18.5h75.4v18.5h-27.7v72.5h-20V222.8z" />
		<path class="st1" d="M195.6,376c-2.6,0-5-0.5-7.3-1.5c-2.2-1-4.2-2.4-5.8-4.1c-1.6-1.7-2.9-3.7-3.8-6c-0.9-2.3-1.4-4.8-1.4-7.4
		v-0.1c0-2.6,0.5-5.1,1.4-7.4c0.9-2.3,2.2-4.3,3.8-6.1c1.6-1.7,3.6-3.1,5.8-4.2c2.2-1,4.7-1.5,7.3-1.5c1.7,0,3.3,0.2,4.6,0.5
		c1.4,0.3,2.6,0.7,3.7,1.2c1.1,0.5,2.2,1.1,3.1,1.9c0.9,0.7,1.9,1.5,2.8,2.3l-1.3,1.3c-0.8-0.7-1.6-1.4-2.5-2.1
		c-0.9-0.7-1.8-1.3-2.9-1.8c-1.1-0.5-2.2-0.9-3.5-1.2c-1.3-0.3-2.7-0.5-4.2-0.5c-2.4,0-4.5,0.5-6.5,1.4c-2,0.9-3.7,2.2-5.2,3.8
		c-1.5,1.6-2.6,3.4-3.4,5.6c-0.8,2.1-1.2,4.4-1.2,6.8v0.1c0,2.4,0.4,4.7,1.2,6.8c0.8,2.1,2,4,3.5,5.6c1.5,1.6,3.2,2.8,5.2,3.8
		c2,0.9,4.2,1.4,6.5,1.4c2.9,0,5.4-0.6,7.5-1.7c2.1-1.1,4-2.5,5.7-4.2l1.3,1.2c-0.9,0.9-1.8,1.7-2.8,2.5c-1,0.8-2.1,1.4-3.3,2
		c-1.2,0.6-2.5,1-3.9,1.4C198.7,375.8,197.2,376,195.6,376z" />
		<path class="st1" d="M217.8,338.2h26.1v1.6h-24.3v16h22v1.6h-22v16.2h24.6v1.6h-26.4V338.2z" />
		<path class="st1" d="M253,338.2h13.2c2.2,0,4.1,0.3,5.9,0.8c1.7,0.5,3.2,1.2,4.4,2.2c1.2,1,2.1,2.1,2.8,3.5c0.7,1.4,1,3,1,4.7v0.1
		c0,1.9-0.4,3.5-1.1,4.9c-0.7,1.4-1.7,2.6-3,3.6c-1.3,1-2.8,1.7-4.6,2.2c-1.8,0.5-3.7,0.7-5.8,0.7h-11v14.3H253V338.2z M265.9,359.4
		c3.9,0,6.9-0.8,9.2-2.5c2.3-1.7,3.4-4.1,3.4-7.2v-0.1c0-3.1-1.1-5.5-3.3-7.1c-2.2-1.7-5.2-2.5-9.1-2.5h-11.3v19.6H265.9z" />
	</g>
	<path class="st1" d="M211.2,162.8c5.7-15.9,11.5-31.7,17.3-47.8c0.2-0.4-0.2-0.9-0.6-0.9l-27.4,0c-0.7,0-1.1-0.8-0.7-1.4l53.5-67.1
	c0.1,0,0.2,0.1,0.3,0.1c-5.8,15.9-11.5,31.8-17.3,48c-0.2,0.4,0.2,0.9,0.6,0.9l27.4,0c0.7,0,1.1,0.8,0.7,1.4
	c-17.9,22.5-35.7,44.7-53.4,67C211.4,162.9,211.4,162.9,211.2,162.8z" />
</svg>