<svg xmlns="http://www.w3.org/2000/svg" width="21" height="21" viewBox="0 0 21 21">
  <g id="Path_433" data-name="Path 433" transform="translate(499 1838.334)" fill="none" stroke-linecap="round" stroke-linejoin="round">
    <path d="M-499-1829.507l10.685-8.827,10.315,8.827v12.173h-8.6v-7.605h-4.074v7.605H-499Z" stroke="none"/>
    <path d="M -488.3264770507812 -1837.02783203125 L -498.0000305175781 -1829.036010742188 L -498.0000305175781 -1818.334350585938 L -491.6698303222656 -1818.334350585938 L -491.6698303222656 -1824.939575195312 C -491.6698303222656 -1825.491821289062 -491.2221069335938 -1825.939575195312 -490.6698303222656 -1825.939575195312 L -486.5955505371094 -1825.939575195312 C -486.0432739257812 -1825.939575195312 -485.5955505371094 -1825.491821289062 -485.5955505371094 -1824.939575195312 L -485.5955505371094 -1818.334350585938 L -479.0000305175781 -1818.334350585938 L -479.0000305175781 -1829.046508789062 L -488.3264770507812 -1837.02783203125 M -488.3151550292969 -1838.334350585938 L -478.0000305175781 -1829.506958007812 L -478.0000305175781 -1817.334350585938 L -486.5955505371094 -1817.334350585938 L -486.5955505371094 -1824.939575195312 L -490.6698303222656 -1824.939575195312 L -490.6698303222656 -1817.334350585938 L -499.0000305175781 -1817.334350585938 L -499.0000305175781 -1829.506958007812 L -488.3151550292969 -1838.334350585938 Z" stroke="none" fill="#fff"/>
  </g>
</svg>
