<svg id="icon_-_profile" data-name="icon - profile" xmlns="http://www.w3.org/2000/svg" width="21" height="21" viewBox="0 0 21 21">
  <g id="Ellipse_89" data-name="Ellipse 89" fill="none" stroke="#fff" stroke-width="1">
    <circle cx="10.5" cy="10.5" r="10.5" stroke="none"/>
    <circle cx="10.5" cy="10.5" r="10" fill="none"/>
  </g>
  <g id="Ellipse_90" data-name="Ellipse 90" transform="translate(6 3)" fill="none" stroke="#fff" stroke-width="1">
    <circle cx="4.5" cy="4.5" r="4.5" stroke="none"/>
    <circle cx="4.5" cy="4.5" r="4" fill="none"/>
  </g>
  <g id="Intersection_1" data-name="Intersection 1" transform="translate(441 -1888)" fill="none">
    <path d="M-439.5,1903.909c1.837-1.743,5.181-2.909,9-2.909s7.164,1.166,9,2.909a10.493,10.493,0,0,1-9,5.091A10.494,10.494,0,0,1-439.5,1903.909Z" stroke="none"/>
    <path d="M -430.4997253417969 1901.999877929688 C -433.5258483886719 1901.999877929688 -436.3716125488281 1902.79248046875 -438.1721496582031 1904.103515625 C -437.3911437988281 1905.17041015625 -436.3916320800781 1906.06982421875 -435.2442932128906 1906.732666015625 C -433.8088989257812 1907.561767578125 -432.1682739257812 1908 -430.4997253417969 1908 C -428.8314514160156 1908 -427.1910095214844 1907.561767578125 -425.7557678222656 1906.732666015625 C -424.6085205078125 1906.06982421875 -423.6090393066406 1905.17041015625 -422.8280944824219 1904.103515625 C -424.6285095214844 1902.79248046875 -427.4739990234375 1901.999877929688 -430.4997253417969 1901.999877929688 M -430.4997253417969 1900.999877929688 C -426.679443359375 1900.999877929688 -423.3358154296875 1902.165893554688 -421.4989013671875 1903.909057617188 C -423.3358154296875 1906.959716796875 -426.679443359375 1909 -430.4997253417969 1909 C -434.320556640625 1909 -437.6643676757812 1906.959716796875 -439.5013732910156 1903.909057617188 C -437.6643676757812 1902.165893554688 -434.320556640625 1900.999877929688 -430.4997253417969 1900.999877929688 Z" stroke="none" fill="#fff"/>
  </g>
</svg>
