<svg xmlns="http://www.w3.org/2000/svg" width="23" height="18" viewBox="0 0 23 18">
  <path id="WM_Icon" d="M10.191,17.33.208,2.027A1.209,1.209,0,0,1,.2.676,1.541,1.541,0,0,1,1.516,0H5.611a1.546,1.546,0,0,0-.92.648,1.263,1.263,0,0,0,0,1.408l7.713,11.818a1.6,1.6,0,0,0,1.363.7,1.668,1.668,0,0,0,1.09-.388L12.808,17.33a1.612,1.612,0,0,1-2.617,0Zm3.91-5.965L8.024,2.026a1.21,1.21,0,0,1,0-1.35A1.541,1.541,0,0,1,9.334,0h4.127a1.542,1.542,0,0,0-1.282.674,1.211,1.211,0,0,0,0,1.349l4,6.181a1.542,1.542,0,0,0,1.311.675A1.585,1.585,0,0,0,18.645,8.4l-1.926,2.96a1.611,1.611,0,0,1-2.619,0Zm3.722-5.616L15.469,2.139A1.356,1.356,0,0,1,16.779.113h4.705a1.355,1.355,0,0,1,1.309,2.027L20.44,5.748a1.611,1.611,0,0,1-2.617,0Z" transform="translate(0)" fill="#fff"/>
</svg>

