<svg xmlns="http://www.w3.org/2000/svg" width="99.51" height="14.835" viewBox="0 0 99.51 14.835">
  <path id="Path_457" data-name="Path 457" d="M11.97-8.07,10.005-2.61,8.085-8.07H6.105L4.125-2.61,2.22-8.07H.015L2.925,0h2.25L7.05-5.01,8.865,0h2.25L14.04-8.07Zm4.335-1.125a1.346,1.346,0,0,0,1.455-1.35,1.314,1.314,0,0,0-1.455-1.26A1.338,1.338,0,0,0,14.85-10.5,1.338,1.338,0,0,0,16.305-9.195ZM15.135,0h2.34V-8.07h-2.34ZM22.05-1.8l4.11-4.86V-8.07H19.2v1.8H23.2l-4.11,4.86V0h7.2V-1.8Zm8.145,0,4.11-4.86V-8.07h-6.96v1.8H31.35L27.24-1.41V0h7.2V-1.8ZM41.55-8.07,39.27-2.595,37-8.07H34.59L38.085.06l-.03.075c-.315.72-.675,1-1.32,1a2.075,2.075,0,0,1-1.32-.51L34.56,2.3a3.583,3.583,0,0,0,2.25.735c1.455,0,2.565-.585,3.345-2.535L43.8-8.07ZM55.1-8.19a3.629,3.629,0,0,0-2.91,1.32A3.012,3.012,0,0,0,49.53-8.19a3.268,3.268,0,0,0-2.535,1.05v-.93H44.76V0H47.1V-4.05c0-1.44.735-2.115,1.77-2.115.975,0,1.53.6,1.53,1.9V0h2.34V-4.05c0-1.44.735-2.115,1.785-2.115.945,0,1.53.6,1.53,1.9V0H58.4V-4.62C58.4-7.08,57.015-8.19,55.1-8.19ZM64.425.12A4.142,4.142,0,0,0,68.85-4.035,4.142,4.142,0,0,0,64.425-8.19a4.154,4.154,0,0,0-4.44,4.155A4.154,4.154,0,0,0,64.425.12Zm0-1.92a2.048,2.048,0,0,1-2.07-2.235,2.048,2.048,0,0,1,2.07-2.235A2.037,2.037,0,0,1,66.48-4.035,2.037,2.037,0,0,1,64.425-1.8Zm10.56-.24a1.577,1.577,0,0,1-.945.3.941.941,0,0,1-1-1.065V-6.09h2.01v-1.8h-2.01V-9.855h-2.34V-7.89H69.45v1.8h1.245v3.315c0,1.92,1.11,2.9,3.015,2.9a3.344,3.344,0,0,0,1.905-.51Zm3.12-7.155a1.346,1.346,0,0,0,1.455-1.35,1.314,1.314,0,0,0-1.455-1.26A1.338,1.338,0,0,0,76.65-10.5,1.338,1.338,0,0,0,78.105-9.195ZM76.935,0h2.34V-8.07h-2.34ZM85.29.12a4.142,4.142,0,0,0,4.425-4.155A4.142,4.142,0,0,0,85.29-8.19a4.154,4.154,0,0,0-4.44,4.155A4.154,4.154,0,0,0,85.29.12Zm0-1.92a2.048,2.048,0,0,1-2.07-2.235A2.048,2.048,0,0,1,85.29-6.27a2.037,2.037,0,0,1,2.055,2.235A2.037,2.037,0,0,1,85.29-1.8ZM96.18-8.19a3.533,3.533,0,0,0-2.67,1.065V-8.07H91.275V0h2.34V-3.99c0-1.485.81-2.175,1.935-2.175,1.035,0,1.635.6,1.635,1.9V0h2.34V-4.62C99.525-7.08,98.085-8.19,96.18-8.19Z" transform="translate(-0.015 11.805)" fill="#fff"/>
</svg>
